<?xml version="1.0" encoding="UTF-8" standalone="no"?>
<!DOCTYPE svg PUBLIC "-//W3C//DTD SVG 1.1//EN" "http://www.w3.org/Graphics/SVG/1.1/DTD/svg11.dtd">
<!-- Created with Vectornator (http://vectornator.io/) -->
<svg  stroke-miterlimit="10" version="1.1" viewBox="0 0 100 100" xmlns="http://www.w3.org/2000/svg" xmlns:xlink="http://www.w3.org/1999/xlink">
<defs/>
<g  fill="currentColor" stroke="currentColor" >
<path d="M91.4013 18.4365L9.17493 18.4365C6.65323 18.4394 4.60973 20.4829 4.6068 23.0046L4.6068 38.2317L10.6976 38.2317L10.6976 24.5273L89.8785 24.5273L89.8785 73.254L10.6976 73.254L10.6976 59.5496L4.6068 59.5496L4.6068 74.7767C4.60973 77.2984 6.65323 79.3419 9.17493 79.3449L91.4013 79.3449C93.9229 79.3419 95.9665 77.2984 95.9694 74.7767L95.9694 23.0046C95.9665 20.4829 93.9229 18.4394 91.4013 18.4365Z" fill-rule="nonzero" opacity="1" />
<path d="M42.0439 61.6582L46.3506 65.965L63.5783 48.7376L46.3506 31.5101L42.0439 35.817L51.9189 45.6922L4.6068 45.6922L4.6068 51.7829L51.9191 51.7829L42.0439 61.6582Z" fill-rule="nonzero" opacity="1" />
</g>
</svg>
