<?xml version="1.0" encoding="UTF-8" standalone="no"?>
<!DOCTYPE svg PUBLIC "-//W3C//DTD SVG 1.1//EN" "http://www.w3.org/Graphics/SVG/1.1/DTD/svg11.dtd">
<!-- Created with Vectornator (http://vectornator.io/) -->
<svg stroke-miterlimit="10"  version="1.1" viewBox="0 0 100 100"  xmlns="http://www.w3.org/2000/svg" xmlns:xlink="http://www.w3.org/1999/xlink">
<defs/>
<g fill="currentColor" stroke="currentColor">
<path d="M47.9983 9.22512C34.9576 9.22512 24.3539 18.9572 24.3539 30.9189L36.1672 30.9189C36.1672 25.4728 41.4725 21.0381 47.9983 21.0381C54.5233 21.0381 59.8284 25.4728 59.8284 30.9189L59.8284 32.6336C59.8284 38.422 57.2814 41.1243 53.4152 45.2084C48.3739 50.5366 42.0949 57.1773 42.0949 71.4153L53.9104 71.4153C53.9104 61.8817 57.6581 57.9113 62.0007 53.3202C66.2987 48.7799 71.6421 43.1264 71.6421 32.6336L71.6421 30.9189C71.6419 18.9572 61.0392 9.22512 47.9983 9.22512Z"  fill-rule="nonzero" opacity="1" stroke="none"/>
<path d="M41.8924 78.021L54.2581 78.021L54.2581 78.021L54.2581 87.9933L54.2581 87.9933L41.8924 87.9933L41.8924 87.9933L41.8924 78.021L41.8924 78.021Z" fill-rule="nonzero" opacity="1" />
</g>
</svg>
